PathFileType	4	(X/Y/Z)	C:\Users\86182\Documents\cortex\Trimmed_M4_L9.trc
DataRate	CameraRate	NumFrames	NumMarkers	Units	OrigDataRate	OrigDataStartFrame	OrigNumFrames
100.00	100.00	       85	2	mm	100.00	181	       901
Frame#	Time	gripper			box			
		X1	Y1	Z1	X2	Y2	Z2	

181	1.800	278.57275	149.90961	219.86160	278.79016	148.28841	85.01155	
182	1.810	278.55786	149.89665	220.30571	278.67014	148.30167	85.51422	
183	1.820	278.52121	149.89854	220.76617	278.56439	148.31763	86.01963	
184	1.830	278.45117	149.91628	221.24580	278.48749	148.33466	86.51923	
185	1.840	278.34967	149.94695	221.74045	278.44226	148.35194	87.00597	
186	1.850	278.24869	149.98207	222.23363	278.42282	148.36870	87.47548	
187	1.860	278.18576	150.01306	222.70798	278.41977	148.38373	87.92888	
188	1.870	278.16690	150.03688	223.15935	278.42551	148.39616	88.37074	
189	1.880	278.17459	150.05328	223.59283	278.43481	148.40559	88.80416	
190	1.890	278.20682	150.05927	224.00818	278.44330	148.41156	89.22916	
191	1.900	278.27432	150.05232	224.40146	278.44690	148.41333	89.64554	
192	1.910	278.36197	150.03766	224.78059	278.44336	148.41112	90.05522	
193	1.920	278.43143	150.02522	225.16423	278.43335	148.40701	90.46191	
194	1.930	278.46857	150.01955	225.56192	278.42081	148.40361	90.87009	
195	1.940	278.50412	150.01608	225.96440	278.41037	148.40190	91.28431	
196	1.950	278.57632	150.00903	226.35776	278.40372	148.40129	91.70683	
197	1.960	278.68283	150.00015	226.74319	278.39874	148.40114	92.13531	
198	1.970	278.78580	149.99666	227.13553	278.39362	148.40192	92.56487	
199	1.980	278.85898	150.00171	227.54379	278.39038	148.40472	92.99251	
200	1.990	278.90637	150.01233	227.96399	278.39352	148.40993	93.41797	
201	2.000	278.93277	150.02646	228.39159	278.40659	148.41646	93.84032	
202	2.010	278.92178	150.04671	228.83099	278.43201	148.42212	94.25519	
203	2.020	278.85565	150.07581	229.28752	278.47458	148.42479	94.65541	
204	2.030	278.73465	150.11313	229.76044	278.54163	148.42354	95.03413	
205	2.040	278.55765	150.15886	230.25070	278.63776	148.41856	95.38904	
206	2.050	278.30621	150.21735	230.76625	278.75754	148.41026	95.72580	
207	2.060	277.97101	150.29192	231.31082	278.87781	148.40004	96.06032	
208	2.070	277.58316	150.37769	231.87201	278.96381	148.39157	96.41277	
209	2.080	277.20270	150.46317	232.42633	279.00308	148.38728	96.78914	
210	2.090	276.88223	150.53790	232.95416	279.02655	148.38425	97.17261	
211	2.100	276.65015	150.59621	233.44705	279.07645	148.37730	97.54297	
212	2.110	276.51669	150.63554	233.90504	279.16473	148.36562	97.89821	
213	2.120	276.48276	150.65509	234.33138	279.27151	148.35417	98.25217	
214	2.130	276.54440	150.65532	234.72910	279.37936	148.34744	98.61429	
215	2.140	276.69513	150.63795	235.10101	279.49094	148.34483	98.98199	
216	2.150	276.92447	150.60625	235.45139	279.59476	148.34705	99.36198	
217	2.160	277.21143	150.56558	235.78830	279.63470	148.36316	99.78690	
218	2.170	277.51404	150.52432	236.12717	279.54779	148.40382	100.29233	
219	2.180	277.76471	150.49493	236.49286	279.33286	148.46843	100.87740	
220	2.190	277.89075	150.49149	236.91115	279.05786	148.54448	101.50035	
221	2.200	277.85568	150.52151	237.39258	278.80356	148.61795	102.11099	
222	2.210	277.68430	150.57951	237.92398	278.62177	148.67958	102.67566	
223	2.220	277.44269	150.65062	238.47661	278.53342	148.72449	103.17944	
224	2.230	277.19473	150.72079	239.02277	278.53635	148.75116	103.62151	
225	2.240	276.97815	150.78265	239.54605	278.60822	148.76114	104.01263	
226	2.250	276.80728	150.83405	240.04080	278.70529	148.75955	104.37640	
227	2.260	276.68265	150.87491	240.50755	278.77390	148.75507	104.74428	
228	2.270	276.59814	150.90532	240.95001	278.78809	148.75459	105.13417	
229	2.280	276.54645	150.92545	241.37430	278.77209	148.75720	105.53674	
230	2.290	276.52069	150.93652	241.78760	278.76755	148.75574	105.93217	
231	2.300	276.51422	150.94116	242.19598	278.78946	148.74385	106.31351	
232	2.310	276.52103	150.94205	242.60326	278.82544	148.72066	106.68877	
233	2.320	276.53717	150.94022	243.01158	278.86990	148.68864	107.06386	
234	2.330	276.56076	150.93547	243.42297	278.94049	148.65025	107.43302	
235	2.340	276.59027	150.92865	243.83984	279.04465	148.61034	107.79459	
236	2.350	276.62268	150.92207	244.26477	279.14847	148.57750	108.16628	
237	2.360	276.65396	150.91731	244.69852	279.20660	148.55804	108.56944	
238	2.370	276.68146	150.91339	245.13879	279.21878	148.54959	109.00122	
239	2.380	276.70496	150.90805	245.58209	279.22864	148.54359	109.43690	
240	2.390	276.72351	150.89995	246.02637	279.26221	148.53447	109.86165	
241	2.400	276.73230	150.88940	246.47043	279.29163	148.52509	110.28752	
242	2.410	276.72574	150.87747	246.91156	279.27383	148.52171	110.73297	
243	2.420	276.70300	150.86447	247.34647	279.21036	148.52449	111.19308	
244	2.430	276.66769	150.84976	247.77356	279.14456	148.52625	111.64365	
245	2.440	276.62323	150.83304	248.19392	279.10126	148.52205	112.07310	
246	2.450	276.57062	150.81544	248.61063	279.05203	148.51677	112.49850	
247	2.460	276.51089	150.79869	249.02649	278.95032	148.52066	112.94604	
248	2.470	276.44711	150.78368	249.44183	278.79001	148.53777	113.42036	
249	2.480	276.38358	150.76994	249.85518	278.61057	148.56238	113.90222	
250	2.490	276.32550	150.75671	250.26675	278.44763	148.58699	114.37523	
251	2.500	276.27905	150.74390	250.67958	278.30655	148.60861	114.84091	
252	2.510	276.24887	150.73210	251.09720	278.18970	148.62651	115.30311	
253	2.520	276.23401	150.72220	251.52097	278.11963	148.63908	115.75244	
254	2.530	276.22894	150.71541	251.95053	278.11813	148.64586	116.17584	
255	2.540	276.22964	150.71298	252.38533	278.17892	148.64958	116.57381	
256	2.550	276.23660	150.71524	252.82495	278.27344	148.65398	116.96033	
257	2.560	276.25085	150.72079	253.26843	278.38269	148.65945	117.34485	
258	2.570	276.26990	150.72780	253.71356	278.51202	148.66254	117.72260	
259	2.580	276.28845	150.73540	254.15701	278.65985	148.66164	118.09157	
260	2.590	276.30197	150.74335	254.59647	278.78946	148.66161	118.46909	
261	2.600	276.30957	150.75107	255.03217	278.85806	148.66856	118.87679	
262	2.610	276.31345	150.75766	255.46530	278.86703	148.68187	119.31355	
263	2.620	276.31592	150.76273	255.89505	278.85513	148.69568	119.75884	
264	2.630	276.31723	150.76692	256.31903	278.83902	148.70853	120.20296	
265	2.640	276.31656	150.77200	256.73676	278.78171	148.72810	120.66220	
